<?xml version="1.0" encoding="UTF-8" standalone="no"?>
<!-- Created with Inkscape (http://www.inkscape.org/) -->

<svg
   xmlns:dc="http://purl.org/dc/elements/1.1/"
   xmlns:cc="http://creativecommons.org/ns#"
   xmlns:rdf="http://www.w3.org/1999/02/22-rdf-syntax-ns#"
   xmlns:svg="http://www.w3.org/2000/svg"
   xmlns="http://www.w3.org/2000/svg"
   xmlns:sodipodi="http://sodipodi.sourceforge.net/DTD/sodipodi-0.dtd"
   xmlns:inkscape="http://www.inkscape.org/namespaces/inkscape"
   width="90"
   height="90"
   viewBox="0 0 23.812499 23.812501"
   version="1.1"
   id="svg8"
   inkscape:version="0.92.3 (2405546, 2018-03-11)"
   sodipodi:docname="filmaffinity.svg">
  <defs
     id="defs2" />
  <sodipodi:namedview
     id="base"
     pagecolor="#ffffff"
     bordercolor="#666666"
     borderopacity="1.0"
     inkscape:pageopacity="0.0"
     inkscape:pageshadow="2"
     inkscape:zoom="5.9800781"
     inkscape:cx="29.849108"
     inkscape:cy="49.804255"
     inkscape:document-units="mm"
     inkscape:current-layer="layer1"
     showgrid="false"
     units="px"
     inkscape:window-width="1920"
     inkscape:window-height="1025"
     inkscape:window-x="0"
     inkscape:window-y="27"
     inkscape:window-maximized="1" />
  <metadata
     id="metadata5">
    <rdf:RDF>
      <cc:Work
         rdf:about="">
        <dc:format>image/svg+xml</dc:format>
        <dc:type
           rdf:resource="http://purl.org/dc/dcmitype/StillImage" />
        <dc:title></dc:title>
      </cc:Work>
    </rdf:RDF>
  </metadata>
  <g
     inkscape:label="Capa 1"
     inkscape:groupmode="layer"
     id="layer1"
     transform="translate(0,-273.18748)">
    <path
       style="fill:#ffffff;stroke-width:0.0213917"
       d="m 4.435388,274.53417 c 0,0 -0.8569139,0.17958 -1.2019929,0.35295 -0.483471,0.2429 -1.023874,0.72612 -1.329118,1.18752 -0.320046,0.48377 -0.508921,1.00246 -0.569991,1.56631 -0.03134,0.28935 -0.03028,3.41799 -5.29e-4,3.59617 h -0.0016 l 0.0067,5.7366 c 0.0063,5.22473 0.0099,5.648 0.04393,5.8167 0.173479,0.8594 0.606532,1.59798 1.232483,2.10271 0.522948,0.42167 1.153361,0.68629 1.8179769,0.76275 0.233827,0.0269 14.672114,0.0291 14.912268,0.002 0.457329,-0.0511 0.787699,-0.14866 1.196826,-0.35295 0.152864,-0.0763 0.369156,-0.20368 0.480592,-0.28319 0.259772,-0.18533 0.613074,-0.53892 0.796874,-0.79788 0.269366,-0.37952 0.489008,-0.88194 0.580326,-1.32705 0.07722,-0.37644 0.07918,-0.5561 0.07286,-6.09988 l -0.0062,-5.55987 c -0.06029,-3.69158 0.376467,-5.45253 -0.962215,-6.32726 0,-0.0338 -0.321281,-0.19867 -0.502295,-0.25787 -0.311969,-0.102 -1.372011,-0.11369 -1.372011,-0.11369 z"
       id="path922"
       inkscape:connector-curvature="0"
       sodipodi:nodetypes="ccccccccccccccccccccc" />
    <path
       inkscape:connector-curvature="0"
       style="fill:#fbca1a;stroke-width:0.0213917"
       d="m 6.7101186,274.5104 c -1.0655388,-1.7e-4 -2.123381,0.007 -2.2746195,0.0236 -0.3866545,0.0417 -0.8568066,0.17996 -1.2018866,0.35333 -0.4834715,0.2429 -1.0242507,0.72581 -1.3294942,1.18721 -0.3200467,0.48377 -0.5087421,1.00239 -0.5698126,1.56624 -0.032242,0.29769 -0.030861,3.65556 0.0015,3.65556 0.017583,0 0.017486,0.008 -3.42e-4,0.0294 -2.566e-4,3e-4 -5.131e-4,0.002 -7.483e-4,0.003 h 5.375396 v -2.27572 c -0.00908,-0.4906 -0.00905,-1.82282 0,-2.31538 z m -2.3196747,1.87376 c 0.1495859,0 0.2005482,0.009 0.2880801,0.0524 0.1358581,0.0669 0.2652062,0.19662 0.3319251,0.33285 0.0756,0.15437 0.076026,0.4249 9.193e-4,0.57791 -0.075946,0.15471 -0.2251067,0.29516 -0.3718021,0.35011 -0.1251769,0.0469 -0.3327312,0.0591 -0.4416618,0.0259 -0.1698066,-0.0517 -0.3394251,-0.19312 -0.4236645,-0.35321 -0.050173,-0.0953 -0.05704,-0.13284 -0.057083,-0.31174 0,-0.17096 0.00772,-0.21797 0.048897,-0.29526 0.075442,-0.14162 0.1887103,-0.25407 0.3216544,-0.31943 0.1035152,-0.0509 0.1472961,-0.0595 0.3027357,-0.0595 z m 0,2.63302 c 0.1553477,2.5e-4 0.1975764,0.009 0.2909193,0.0577 0.1614707,0.0848 0.2282346,0.14947 0.3094617,0.29944 0.066849,0.12343 0.073073,0.1503 0.073073,0.3168 0,0.15562 -0.00858,0.19949 -0.05942,0.30312 -0.06581,0.13417 -0.179453,0.24826 -0.319106,0.32039 -0.099282,0.0513 -0.3850531,0.0763 -0.4873433,0.0426 -0.199135,-0.0655 -0.3518936,-0.20283 -0.4397398,-0.39543 -0.05084,-0.11146 -0.056072,-0.14446 -0.047561,-0.29965 0.014942,-0.27246 0.1423596,-0.47042 0.3769803,-0.58577 0.1037568,-0.051 0.1469327,-0.0594 0.3027358,-0.0592 z"
       id="path868" />
    <path
       inkscape:connector-curvature="0"
       id="path858"
       d="m 6.7208075,280.31001 c 0,-0.62735 0.00754,-0.98377 0.020721,-0.97923 0.026218,0.009 2.2753199,1.89209 2.3103389,1.93433 0.022676,0.0274 -0.1215282,0.0313 -1.1525716,0.0313 H 6.7208075 Z m 3.4741665,-0.70376 c -1.1053196,-0.92802 -2.0096715,-1.6981 -2.0096715,-1.71128 0,-0.0132 0.8919388,-0.76903 1.9820855,-1.67966 l 1.982086,-1.6557 1.638139,-0.016 c 1.027231,-0.01 1.645702,-0.008 1.658424,0.004 0.0128,0.0128 -0.706225,0.62709 -1.947279,1.66361 -1.247275,1.04171 -1.967566,1.65714 -1.967566,1.68111 0,0.0208 0.04117,0.0752 0.09149,0.1208 0.05032,0.0456 0.939524,0.79309 1.976005,1.66099 1.036482,0.8679 1.89061,1.58787 1.898062,1.59994 0.0092,0.0149 -0.515221,0.0215 -1.639279,0.0206 l -1.652827,-0.001 -2.009672,-1.68732 z m 6.435225,0 c -1.105318,-0.92796 -2.009671,-1.69642 -2.009671,-1.70769 0,-0.0113 0.902677,-0.77393 2.00595,-1.69481 l 2.005951,-1.67432 0.997867,0.009 c 1.039949,0.01 1.06004,0.0115 1.372009,0.1135 0.181014,0.0592 0.502418,0.2243 0.502418,0.2581 0,0.0122 -0.793714,0.67939 -1.763808,1.48255 -0.970094,0.80316 -1.766587,1.47664 -1.769984,1.49662 -0.0093,0.0548 -0.297375,-0.19116 3.419187,2.92001 0.277878,0.23261 0.517131,0.43729 0.531676,0.45483 0.02339,0.0282 -0.164413,0.0317 -1.62774,0.0304 l -1.654182,-0.001 -2.009673,-1.6872 z m 5.110976,-1.05727 c -0.375575,-0.34402 -0.680489,-0.63472 -0.677585,-0.64601 0.0079,-0.0308 1.379301,-1.03455 1.397865,-1.02314 0.0088,0.005 0.01603,0.52459 0.01603,1.15371 0,0.90159 -0.0057,1.14354 -0.02672,1.14239 -0.0147,-8e-4 -0.334013,-0.28293 -0.70959,-0.62695 z M 6.7208075,275.5084 v -0.95426 h 1.1438019 c 0.6290919,0 1.143254,0.007 1.1425834,0.0161 -0.00145,0.0191 -2.2258668,1.87227 -2.261689,1.88422 -0.01843,0.006 -0.024696,-0.2339 -0.024696,-0.94601 z"
       style="fill:#1e181a;stroke-width:0.0213917" />
    <path
       style="fill:#005391;stroke-width:0.0213917"
       d="m 1.3323898,281.23732 0.0068,5.73651 c 0.00631,5.22473 0.0095,5.64773 0.043552,5.81643 0.1734797,0.8594 0.6064593,1.59821 1.2324103,2.10294 0.522948,0.42167 1.1534337,0.68614 1.8180496,0.7626 0.2338268,0.0269 14.6720373,0.029 14.9121913,0.002 0.457329,-0.0511 0.788125,-0.14858 1.197252,-0.35287 0.152863,-0.0763 0.369101,-0.20384 0.480537,-0.28335 0.259749,-0.18534 0.612753,-0.53892 0.796553,-0.79788 0.269366,-0.37952 0.488893,-0.88147 0.580211,-1.32658 0.07722,-0.37644 0.07939,-0.55633 0.07307,-6.10012 l -0.0062,-5.55985 z m 7.5798207,3.07699 c 2.4273585,0 2.7048435,0.003 2.7350315,0.0337 0.02925,0.0293 0.03361,0.12976 0.03361,0.77697 0,0.54961 -0.0067,0.75001 -0.02564,0.769 -0.0195,0.0195 -0.409537,0.0257 -1.624841,0.0257 H 8.4311724 v 0.58543 0.58539 l 0.1957138,0.0139 c 0.1076355,0.008 0.7227635,0.0139 1.3669941,0.0139 0.8827417,0 1.1752087,0.006 1.1870617,0.0255 0.0285,0.0462 0.03802,1.37416 0.01023,1.42616 l -0.02493,0.0466 H 9.7988331 8.4314649 l -0.00551,1.45012 -0.00547,1.45011 -1.1126098,0.006 c -0.8475795,0.004 -1.1187695,-6.5e-4 -1.1384582,-0.0204 -0.019993,-0.02 -0.025848,-0.82829 -0.025848,-3.57308 0,-3.19622 0.0033,-3.55058 0.033573,-3.58089 0.030188,-0.0302 0.3077127,-0.0337 2.7350708,-0.0337 z m 6.1585455,3.3e-4 c 0.909506,-2.5e-4 1.184943,0.006 1.211533,0.0264 0.04367,0.0339 0.05368,0.0601 1.502534,3.91896 0.730775,1.94636 1.204504,3.23648 1.192742,3.24826 -0.01142,0.0114 -0.501677,0.0172 -1.182344,0.014 l -1.162843,-0.006 -0.06109,-0.20333 c -0.153768,-0.51186 -0.282132,-0.91196 -0.300442,-0.93643 -0.01561,-0.0208 -0.288296,-0.0267 -1.236711,-0.0267 -1.138969,0 -1.217586,0.002 -1.231157,0.0375 -0.008,0.0206 -0.08736,0.28306 -0.176381,0.58325 l -0.161849,0.5458 -1.138417,0.006 c -0.941069,0.005 -1.140346,4.9e-4 -1.149523,-0.0235 -0.01378,-0.036 2.655009,-7.14454 2.690851,-7.16735 0.01428,-0.009 0.555675,-0.0167 1.203097,-0.0168 z m -0.02288,2.04792 c -0.01314,0.003 -0.736532,2.33518 -0.737258,2.377 -5.4e-5,0.003 0.331833,0.005 0.737508,0.005 0.575837,0 0.737574,-0.006 0.737552,-0.0268 -2.6e-5,-0.0227 -0.136189,-0.47009 -0.640174,-2.10293 -0.0436,-0.14127 -0.08754,-0.25495 -0.09763,-0.25267 z"
       id="path862"
       inkscape:connector-curvature="0"
       sodipodi:nodetypes="cccscccccccccccscsccccscccccccccscccccscccccscccccccccscccc" />
    <path
       inkscape:connector-curvature="0"
       style="fill:#152f5f;stroke-width:0.0213917"
       d="m 11.68085,284.63324 v 0.61749 c 0,0.45174 -0.0069,0.62442 -0.02568,0.64321 -0.0195,0.0195 -0.409535,0.0257 -1.624841,0.0257 H 8.4311675 v 0.5886 0.58865 h 0.128277 0.1282769 l 3.421e-4,-0.43343 c 2.138e-4,-0.23838 0.00792,-0.44541 0.017204,-0.46005 0.013165,-0.0208 0.3699143,-0.0278 1.6191625,-0.0321 l 1.602293,-0.005 v -0.75984 -0.75983 l -0.122932,-0.006 z m 4.802744,0.002 c -0.01966,8e-4 -0.03614,0.006 -0.04197,0.0158 -0.0052,0.009 0.02214,0.0979 0.06067,0.19798 0.490867,1.27481 2.489722,6.64029 2.479771,6.65641 -0.0087,0.014 -0.379952,0.0216 -1.062336,0.0216 h -1.049015 l 0.01261,0.0631 c 0.0069,0.0347 0.02685,0.0973 0.0443,0.13912 l 0.03178,0.0761 h 1.132945 c 0.755494,0 1.137467,-0.007 1.146559,-0.0221 0.0075,-0.0121 -0.224068,-0.65506 -0.51457,-1.42871 -1.796584,-4.78456 -2.129529,-5.66562 -2.150684,-5.69114 -0.01576,-0.019 -0.05731,-0.0295 -0.09007,-0.0281 z m -1.435474,1.72691 c -0.0135,0.003 -0.736862,2.33527 -0.737509,2.37792 0,0.003 0.07917,0.003 0.176047,0 l 0.176131,-0.006 0.271545,-0.88826 c 0.14934,-0.48854 0.271979,-0.91716 0.272545,-0.95247 0.0013,-0.0829 -0.134303,-0.53641 -0.158759,-0.53096 z m -3.72237,1.0574 c -0.01124,1.7e-4 -0.02215,7.6e-4 -0.03211,0.002 l -0.07245,0.007 -0.01069,0.56721 c -0.0059,0.31196 -0.01846,0.57924 -0.02798,0.59396 -0.01354,0.0209 -0.314172,0.0267 -1.3841958,0.0267 H 8.4314604 l -0.00551,1.45012 -0.00547,1.45011 -0.9727668,0.0107 -0.9727668,0.0107 -0.00664,0.1043 c -0.00364,0.0574 -0.0015,0.11766 0.00476,0.13398 0.00953,0.0249 0.1892213,0.0288 1.1076842,0.0241 l 1.0962826,-0.006 0.011066,-1.45546 c 0.00608,-0.80051 0.013304,-1.4578 0.016035,-1.46065 0.00273,-0.003 0.6231031,-0.008 1.3786004,-0.0107 l 1.373632,-0.006 0.0056,-0.71118 0.0056,-0.71122 -0.05078,-0.0127 c -0.02095,-0.005 -0.0574,-0.008 -0.09112,-0.008 z m 3.708381,2.93029 c -1.138969,0 -1.217585,0.002 -1.231157,0.0375 -0.008,0.0206 -0.08737,0.28306 -0.176381,0.58325 l -0.161849,0.5458 -0.950051,0.0107 -0.950094,0.0107 -0.03904,0.10518 c -0.02146,0.0579 -0.03408,0.11806 -0.02806,0.13377 0.0156,0.0407 2.19846,0.0425 2.229731,0.002 0.01132,-0.0147 0.08125,-0.23384 0.155378,-0.48694 0.07413,-0.2531 0.148209,-0.50593 0.164605,-0.56185 l 0.02981,-0.10167 h 1.132279 c 0.829789,0 1.132277,-0.007 1.132277,-0.0243 0,-0.0409 -0.049,-0.19883 -0.07049,-0.22721 -0.01579,-0.0208 -0.288668,-0.0267 -1.236962,-0.0267 z"
       id="path860" />
  </g>
</svg>
