<?xml version="1.0" encoding="UTF-8" standalone="no"?>
<svg
   xmlns:dc="http://purl.org/dc/elements/1.1/"
   xmlns:cc="http://creativecommons.org/ns#"
   xmlns:rdf="http://www.w3.org/1999/02/22-rdf-syntax-ns#"
   xmlns:svg="http://www.w3.org/2000/svg"
   xmlns="http://www.w3.org/2000/svg"
   xmlns:sodipodi="http://sodipodi.sourceforge.net/DTD/sodipodi-0.dtd"
   xmlns:inkscape="http://www.inkscape.org/namespaces/inkscape"
   viewBox="0 0 100 100"
   version="1.1"
   id="svg22"
   sodipodi:docname="meneame.svg"
   inkscape:version="0.92.3 (2405546, 2018-03-11)">
  <metadata
     id="metadata28">
    <rdf:RDF>
      <cc:Work
         rdf:about="">
        <dc:format>image/svg+xml</dc:format>
        <dc:type
           rdf:resource="http://purl.org/dc/dcmitype/StillImage" />
        <dc:title></dc:title>
      </cc:Work>
    </rdf:RDF>
  </metadata>
  <defs
     id="defs26" />
  <sodipodi:namedview
     pagecolor="#ffffff"
     bordercolor="#666666"
     borderopacity="1"
     objecttolerance="10"
     gridtolerance="10"
     guidetolerance="10"
     inkscape:pageopacity="0"
     inkscape:pageshadow="2"
     inkscape:window-width="1920"
     inkscape:window-height="1025"
     id="namedview24"
     showgrid="false"
     inkscape:zoom="5.31"
     inkscape:cx="34.714375"
     inkscape:cy="39.265537"
     inkscape:window-x="0"
     inkscape:window-y="27"
     inkscape:window-maximized="1"
     inkscape:current-layer="svg22" />
  <circle
     style="opacity:1;fill:#ffffff;fill-opacity:1;fill-rule:nonzero;stroke:none;stroke-width:4.59880877;stroke-linecap:round;stroke-miterlimit:4;stroke-dasharray:none;stroke-dashoffset:0;stroke-opacity:1"
     id="path913"
     cx="50"
     cy="50"
     r="45" />
  <g
     id="g888"
     transform="matrix(0.11881837,0,0,0.11881837,14.525575,8.1545418)">
	
		<path
   style="fill:#ff6400"
   inkscape:connector-curvature="0"
   id="path2073"
   inkscape:export-ydpi="2.5699999"
   inkscape:export-xdpi="2.5699999"
   inkscape:export-filename="/home/benjami/work/mnm/meneame/almeida02.png"
   sodipodi:nodetypes="ccccsccccc"
   d="m 516.903,224.438 c -36.314,36.831 -101.885,35.769 -126.271,85.513 -20.804,58.993 28.189,153.248 48.642,207.03 13.855,27.768 -108.224,54.538 -93.292,61.413 86.148,-0.975 122.885,-32.413 112.548,-70.992 -9.892,-36.915 -54.544,-110.595 -54.544,-169.468 1.251,-44.467 50.988,-58.122 83.023,-76.243 37.223,-16.688 72.041,-53.921 62.416,-97.595 -0.412,-15.405 -27.24,-66.692 -16.287,-26.937 5.974,29.35 8.845,65.574 -16.235,87.279 z" />

	
		<path
   style="fill:#ff6400"
   inkscape:connector-curvature="0"
   id="path2075"
   inkscape:export-ydpi="2.5699999"
   inkscape:export-xdpi="2.5699999"
   inkscape:export-filename="/home/benjami/work/mnm/meneame/almeida02.png"
   sodipodi:nodetypes="ccccccccsccccc"
   d="m 404.869,158.157 c -46.882,-24.185 -98.97,-38.831 -153.501,-26.078 -29.298,5.415 -63.806,21.418 -83.435,48.223 -25.739,30.738 -26.741,75.449 -9.859,110.598 13.121,27.083 33.064,57.214 65.378,61.73 27.791,4.169 58.325,0.403 81.934,-15.646 -28.07,4.827 -60.586,14.805 -85.795,-3.956 -42.248,-27.021 -62.792,-88.34 -37.142,-133.099 20.604,-39.024 62.108,-50.018 106.021,-51.949 58.559,-2.577 114.681,30.833 136.215,38.971 20.749,6.533 50.506,14.807 65.27,-7.221 8.629,-10.234 5.18,-38.43 -1.837,-41.046 2.027,19.753 -12.459,44.598 -35.008,38.119 -16.842,-3.977 -32.337,-12.054 -48.241,-18.646 z" />

	
		<path
   style="fill:#ff6400"
   inkscape:connector-curvature="0"
   id="path2077"
   inkscape:export-ydpi="2.5699999"
   inkscape:export-xdpi="2.5699999"
   inkscape:export-filename="/home/benjami/work/mnm/meneame/almeida02.png"
   sodipodi:nodetypes="ccccccccc"
   d="m 90.625,332.811 c -27.158,42.804 -51.966,92.935 -42.495,145.107 8.708,54.541 61.475,93.011 113.943,99.859 53.873,6.273 107.63,4.682 161.636,0.795 9.106,-8.806 -44.07,-8.566 -66.468,-11.793 C 206.152,560.995 150.725,559.936 106.922,529.596 66.113,499.061 60.764,439.165 80.33,395.015 c 16.408,-41.658 40.896,-81.924 66.657,-116.728 -20.087,16.685 -38.646,29.13 -56.362,54.524 z" />

	
		<path
   style="fill:#ff6400"
   inkscape:connector-curvature="0"
   id="path2079"
   inkscape:export-ydpi="2.5699999"
   inkscape:export-xdpi="2.5699999"
   inkscape:export-filename="/home/benjami/work/mnm/meneame/almeida02.png"
   sodipodi:nodetypes="ccccc"
   d="m 224.789,467.456 c 31.823,2.46 84.634,-0.772 109.441,16.569 8.877,13.354 -7.643,87.264 -1.951,95.797 12.674,3.729 27.171,-86.602 19.146,-109.047 -6.077,-17.135 -113.966,-8.023 -126.636,-3.319 z" />

</g>
</svg>
